<svg width="29" height="29" viewBox="0 0 29 29" fill="none" xmlns="http://www.w3.org/2000/svg">
<path d="M0 5.15556C0 2.30822 2.30822 0 5.15556 0H23.8444C26.6918 0 29 2.30822 29 5.15556V23.8444C29 26.6918 26.6918 29 23.8444 29H5.15556C2.30822 29 0 26.6918 0 23.8444V5.15556Z" fill="#0063B0"/>
<path d="M11.9219 17.7222H13.1142L13.4847 16.5945H15.4825L15.853 17.7222H17.0775L15.1442 12.2767H13.8553L11.9219 17.7222ZM13.7908 15.66L14.4997 13.5334L15.1925 15.66H13.7908ZM12.5664 8.70002V7.41113H16.433V8.70002H12.5664ZM14.4997 20.9445C13.7049 20.9445 12.9556 20.7915 12.2519 20.4856C11.5482 20.1797 10.9334 19.7634 10.4075 19.2367C9.88162 18.71 9.46552 18.0949 9.1592 17.3916C8.85287 16.6883 8.69971 15.9393 8.69971 15.1445C8.69971 14.3497 8.85287 13.6004 9.1592 12.8966C9.46552 12.1929 9.88162 11.5781 10.4075 11.0522C10.9334 10.5264 11.5484 10.1103 12.2525 9.80395C12.9567 9.49763 13.7058 9.34447 14.4997 9.34447C15.1656 9.34447 15.8047 9.45187 16.4169 9.66669C17.0292 9.8815 17.6038 10.193 18.1408 10.6011L19.043 9.69891L19.9453 10.6011L19.043 11.5034C19.4512 12.0404 19.7627 12.615 19.9775 13.2272C20.1923 13.8395 20.2997 14.4785 20.2997 15.1445C20.2997 15.9393 20.1465 16.6886 19.8402 17.3923C19.5339 18.096 19.1178 18.7108 18.5919 19.2367C18.0661 19.7626 17.451 20.1789 16.7469 20.4856C16.0427 20.7924 15.2937 20.9453 14.4997 20.9445ZM14.4997 19.6556C15.7456 19.6556 16.809 19.2152 17.6897 18.3345C18.5704 17.4537 19.0108 16.3904 19.0108 15.1445C19.0108 13.8985 18.5704 12.8352 17.6897 11.9545C16.809 11.0737 15.7456 10.6334 14.4997 10.6334C13.2538 10.6334 12.1904 11.0737 11.3097 11.9545C10.429 12.8352 9.9886 13.8985 9.9886 15.1445C9.9886 16.3904 10.429 17.4537 11.3097 18.3345C12.1904 19.2152 13.2538 19.6556 14.4997 19.6556Z" fill="white"/>
</svg>
