<svg width="30" height="30" viewBox="0 0 30 30" fill="none" xmlns="http://www.w3.org/2000/svg">
<path d="M15.0001 20H15.0101M15.0001 12.5V16.25M13.2188 6.52121L4.39632 21.25C4.21454 21.565 4.1184 21.9221 4.11744 22.2859C4.11648 22.6496 4.21075 23.0072 4.39087 23.3232C4.57098 23.6392 4.83068 23.9026 5.14413 24.0871C5.45758 24.2716 5.81387 24.3708 6.17757 24.375H23.8226C24.1864 24.3712 24.5429 24.2722 24.8566 24.0878C25.1703 23.9033 25.4301 23.64 25.6103 23.3238C25.7905 23.0077 25.8847 22.6499 25.8836 22.286C25.8825 21.9222 25.786 21.5649 25.6038 21.25L16.7826 6.52121C16.597 6.21487 16.3356 5.96156 16.0236 5.78575C15.7116 5.60994 15.3595 5.51758 15.0013 5.51758C14.6432 5.51758 14.2911 5.60994 13.979 5.78575C13.667 5.96156 13.4056 6.21487 13.2201 6.52121" stroke="white" stroke-width="2" stroke-miterlimit="10" stroke-linecap="round" stroke-linejoin="round"/>
</svg>
