<svg width="18" height="18" viewBox="0 0 18 18" fill="none" xmlns="http://www.w3.org/2000/svg">
<path d="M8.4375 0C9.2168 0 9.96387 0.0996094 10.6787 0.298828C11.3936 0.498047 12.0674 0.779297 12.7002 1.14258C13.333 1.50586 13.9014 1.94531 14.4053 2.46094C14.9092 2.97656 15.3486 3.54785 15.7236 4.1748C16.0986 4.80176 16.3828 5.47266 16.5762 6.1875C16.7695 6.90234 16.8691 7.65234 16.875 8.4375C16.875 9.2168 16.7754 9.96387 16.5762 10.6787C16.377 11.3936 16.0957 12.0674 15.7324 12.7002C15.3691 13.333 14.9297 13.9014 14.4141 14.4053C13.8984 14.9092 13.3271 15.3486 12.7002 15.7236C12.0732 16.0986 11.4023 16.3828 10.6875 16.5762C9.97266 16.7695 9.22266 16.8691 8.4375 16.875C7.6582 16.875 6.91113 16.7754 6.19629 16.5762C5.48145 16.377 4.80762 16.0957 4.1748 15.7324C3.54199 15.3691 2.97363 14.9297 2.46973 14.4141C1.96582 13.8984 1.52637 13.3271 1.15137 12.7002C0.776367 12.0732 0.492188 11.4023 0.298828 10.6875C0.105469 9.97266 0.00585938 9.22266 0 8.4375C0 7.6582 0.0996094 6.91113 0.298828 6.19629C0.498047 5.48145 0.779297 4.80762 1.14258 4.1748C1.50586 3.54199 1.94531 2.97363 2.46094 2.46973C2.97656 1.96582 3.54785 1.52637 4.1748 1.15137C4.80176 0.776367 5.47266 0.492188 6.1875 0.298828C6.90234 0.105469 7.65234 0.00585938 8.4375 0ZM8.4375 15.75C9.11133 15.75 9.75879 15.6621 10.3799 15.4863C11.001 15.3105 11.5811 15.0645 12.1201 14.748C12.6592 14.4316 13.1543 14.0508 13.6055 13.6055C14.0566 13.1602 14.4375 12.668 14.748 12.1289C15.0586 11.5898 15.3047 11.0068 15.4863 10.3799C15.668 9.75293 15.7559 9.10547 15.75 8.4375C15.75 7.76367 15.6621 7.11621 15.4863 6.49512C15.3105 5.87402 15.0645 5.29395 14.748 4.75488C14.4316 4.21582 14.0508 3.7207 13.6055 3.26953C13.1602 2.81836 12.668 2.4375 12.1289 2.12695C11.5898 1.81641 11.0068 1.57031 10.3799 1.38867C9.75293 1.20703 9.10547 1.11914 8.4375 1.125C7.76367 1.125 7.11621 1.21289 6.49512 1.38867C5.87402 1.56445 5.29395 1.81055 4.75488 2.12695C4.21582 2.44336 3.7207 2.82422 3.26953 3.26953C2.81836 3.71484 2.4375 4.20703 2.12695 4.74609C1.81641 5.28516 1.57031 5.86816 1.38867 6.49512C1.20703 7.12207 1.11914 7.76953 1.125 8.4375C1.125 9.11133 1.21289 9.75879 1.38867 10.3799C1.56445 11.001 1.81055 11.5811 2.12695 12.1201C2.44336 12.6592 2.82422 13.1543 3.26953 13.6055C3.71484 14.0566 4.20703 14.4375 4.74609 14.748C5.28516 15.0586 5.86816 15.3047 6.49512 15.4863C7.12207 15.668 7.76953 15.7559 8.4375 15.75ZM6.38965 7.875H12.375V9H6.38965L8.83301 11.4082L8.04199 12.2168L4.22754 8.4375L8.04199 4.6582L8.83301 5.4668L6.38965 7.875Z" fill="black"/>
</svg>
