<svg width="27" height="27" viewBox="0 0 27 27" fill="none" xmlns="http://www.w3.org/2000/svg">
<path d="M18 0.25C18.3315 0.25 18.6495 0.381696 18.8839 0.616116C19.1183 0.850537 19.25 1.16848 19.25 1.5V2.75H25.5V10.25H22.9763L26.4087 19.68C26.6546 20.3147 26.7683 20.9928 26.7429 21.673C26.7175 22.3531 26.5535 23.0209 26.261 23.6354C25.9684 24.25 25.5535 24.7983 25.0416 25.2469C24.5297 25.6954 23.9316 26.0347 23.2839 26.244C22.6363 26.4533 21.9527 26.5282 21.2751 26.464C20.5975 26.3999 19.9402 26.198 19.3433 25.8709C18.7465 25.5438 18.2227 25.0983 17.8041 24.5616C17.3854 24.025 17.0808 23.4085 16.9088 22.75H11.5925C11.3084 23.8471 10.6602 24.8152 9.75411 25.4958C8.848 26.1764 7.73764 26.5291 6.60486 26.4963C5.47208 26.4635 4.38401 26.047 3.51882 25.3151C2.65363 24.5832 2.0626 23.5792 1.8425 22.4675C1.43741 22.2559 1.09808 21.9373 0.86139 21.5463C0.6247 21.1554 0.499707 20.707 0.500001 20.25V7.75C0.500001 7.41848 0.631697 7.10054 0.866117 6.86612C1.10054 6.6317 1.41848 6.5 1.75 6.5H10.5C10.8315 6.5 11.1495 6.6317 11.3839 6.86612C11.6183 7.10054 11.75 7.41848 11.75 7.75V14C11.75 14.3315 11.8817 14.6495 12.1161 14.8839C12.3505 15.1183 12.6685 15.25 13 15.25H15.5C15.8315 15.25 16.1495 15.1183 16.3839 14.8839C16.6183 14.6495 16.75 14.3315 16.75 14V2.75H13V0.25H18ZM6.75 19C6.08696 19 5.45107 19.2634 4.98223 19.7322C4.51339 20.2011 4.25 20.837 4.25 21.5C4.25 22.163 4.51339 22.7989 4.98223 23.2678C5.45107 23.7366 6.08696 24 6.75 24C7.41304 24 8.04893 23.7366 8.51777 23.2678C8.98661 22.7989 9.25 22.163 9.25 21.5C9.25 20.837 8.98661 20.2011 8.51777 19.7322C8.04893 19.2634 7.41304 19 6.75 19ZM21.75 18.9987C21.2184 18.9989 20.7006 19.1685 20.272 19.483C19.8433 19.7975 19.5261 20.2404 19.3663 20.7475C19.2065 21.2546 19.2126 21.7994 19.3836 22.3028C19.5546 22.8062 19.8816 23.242 20.3171 23.5468C20.7526 23.8517 21.274 24.0098 21.8055 23.9981C22.337 23.9865 22.851 23.8057 23.2728 23.482C23.6945 23.1584 24.0021 22.7087 24.1509 22.1983C24.2996 21.6879 24.2818 21.1433 24.1 20.6438L24.0788 20.5887C23.8954 20.1204 23.5751 19.7183 23.1597 19.4348C22.7442 19.1514 22.2529 18.9999 21.75 19M20.3162 10.25H19.25V14C19.25 14.9946 18.8549 15.9484 18.1517 16.6517C17.4484 17.3549 16.4946 17.75 15.5 17.75H13C12.0054 17.75 11.0516 17.3549 10.3483 16.6517C9.64509 15.9484 9.25 14.9946 9.25 14H3V18.1925C3.60105 17.5119 4.37602 17.0077 5.24181 16.734C6.1076 16.4603 7.03155 16.4274 7.91461 16.6389C8.79767 16.8503 9.60652 17.2981 10.2544 17.9343C10.9024 18.5704 11.3649 19.371 11.5925 20.25H16.9075C17.2219 19.0312 17.9845 17.9758 19.043 17.2945C20.1014 16.6133 21.3779 16.3564 22.6175 16.575L20.3162 10.25ZM9.25 9H3V11.5H9.25V9ZM23 5.25H19.25V7.75H23V5.25Z" fill="white"/>
</svg>
