<svg width="30" height="30" viewBox="0 0 30 30" fill="none" xmlns="http://www.w3.org/2000/svg">
<path d="M1.25 25V21.5C1.25 20.7917 1.4325 20.1409 1.7975 19.5475C2.1625 18.9542 2.64667 18.5009 3.25 18.1875C4.54167 17.5417 5.85417 17.0575 7.1875 16.735C8.52083 16.4125 9.875 16.2509 11.25 16.25C12.625 16.2492 13.9792 16.4109 15.3125 16.735C16.6458 17.0592 17.9583 17.5434 19.25 18.1875C19.8542 18.5 20.3387 18.9534 20.7038 19.5475C21.0688 20.1417 21.2508 20.7925 21.25 21.5V25H1.25ZM23.75 25V21.25C23.75 20.3334 23.495 19.4529 22.985 18.6088C22.475 17.7646 21.7508 17.0409 20.8125 16.4375C21.875 16.5625 22.875 16.7763 23.8125 17.0788C24.75 17.3813 25.625 17.7509 26.4375 18.1875C27.1875 18.6042 27.7604 19.0675 28.1562 19.5775C28.5521 20.0875 28.75 20.645 28.75 21.25V25H23.75ZM11.25 15C9.875 15 8.69792 14.5104 7.71875 13.5313C6.73958 12.5521 6.25 11.375 6.25 10C6.25 8.62503 6.73958 7.44795 7.71875 6.46878C8.69792 5.48962 9.875 5.00003 11.25 5.00003C12.625 5.00003 13.8021 5.48962 14.7812 6.46878C15.7604 7.44795 16.25 8.62503 16.25 10C16.25 11.375 15.7604 12.5521 14.7812 13.5313C13.8021 14.5104 12.625 15 11.25 15ZM23.75 10C23.75 11.375 23.2604 12.5521 22.2812 13.5313C21.3021 14.5104 20.125 15 18.75 15C18.5208 15 18.2292 14.9742 17.875 14.9225C17.5208 14.8709 17.2292 14.8134 17 14.75C17.5625 14.0834 17.995 13.3438 18.2975 12.5313C18.6 11.7188 18.7508 10.875 18.75 10C18.7492 9.12503 18.5983 8.28128 18.2975 7.46878C17.9967 6.65628 17.5642 5.9167 17 5.25003C17.2917 5.14587 17.5833 5.07795 17.875 5.04628C18.1667 5.01462 18.4583 4.9992 18.75 5.00003C20.125 5.00003 21.3021 5.48962 22.2812 6.46878C23.2604 7.44795 23.75 8.62503 23.75 10ZM3.75 22.5H18.75V21.5C18.75 21.2709 18.6929 21.0625 18.5788 20.875C18.4646 20.6875 18.3133 20.5417 18.125 20.4375C17 19.875 15.8646 19.4534 14.7188 19.1725C13.5729 18.8917 12.4167 18.7509 11.25 18.75C10.0833 18.7492 8.92708 18.89 7.78125 19.1725C6.63542 19.455 5.5 19.8767 4.375 20.4375C4.1875 20.5417 4.03625 20.6875 3.92125 20.875C3.80625 21.0625 3.74917 21.2709 3.75 21.5V22.5ZM11.25 12.5C11.9375 12.5 12.5262 12.2554 13.0163 11.7663C13.5063 11.2771 13.7508 10.6884 13.75 10C13.7492 9.3117 13.5046 8.72337 13.0163 8.23503C12.5279 7.7467 11.9392 7.5017 11.25 7.50003C10.5608 7.49837 9.9725 7.74337 9.485 8.23503C8.9975 8.7267 8.7525 9.31503 8.75 10C8.7475 10.685 8.9925 11.2738 9.485 11.7663C9.9775 12.2588 10.5658 12.5034 11.25 12.5Z" fill="white"/>
</svg>
