<svg width="18" height="18" viewBox="0 0 18 18" fill="none" xmlns="http://www.w3.org/2000/svg">
<path d="M13.2975 9.3465C13.4045 9.3465 13.494 9.3105 13.566 9.2385C13.638 9.1665 13.6738 9.0775 13.6733 8.9715C13.6728 8.8655 13.6368 8.77625 13.5653 8.70375C13.4937 8.63125 13.4048 8.5955 13.2983 8.5965H10.9905C10.884 8.5965 10.7948 8.63225 10.7227 8.70375C10.6512 8.77525 10.6155 8.8645 10.6155 8.9715C10.6155 9.0785 10.6512 9.1675 10.7227 9.2385C10.7942 9.3095 10.8835 9.3455 10.9905 9.3465H13.2975ZM13.2975 7.269C13.4045 7.269 13.494 7.23325 13.566 7.16175C13.638 7.09025 13.6738 7.001 13.6733 6.894C13.6728 6.787 13.6368 6.698 13.5653 6.627C13.4937 6.556 13.4048 6.52 13.2983 6.519H10.9905C10.884 6.519 10.7948 6.55475 10.7227 6.62625C10.6512 6.69825 10.6155 6.7875 10.6155 6.894C10.6155 7.0005 10.6512 7.08975 10.7227 7.16175C10.7942 7.23375 10.8835 7.2695 10.9905 7.269H13.2975ZM6.80775 9.981C6.39625 9.981 6.04775 10.0095 5.76225 10.0665C5.47625 10.1235 5.22 10.2155 4.9935 10.3425C4.7985 10.4475 4.65125 10.5623 4.55175 10.6868C4.45225 10.8113 4.40275 10.9443 4.40325 11.0858C4.40325 11.1973 4.4475 11.291 4.536 11.367C4.6245 11.443 4.7355 11.481 4.869 11.481H8.7465C8.88 11.481 8.991 11.4398 9.0795 11.3573C9.168 11.2748 9.21225 11.1765 9.21225 11.0625C9.21225 10.9365 9.165 10.8143 9.0705 10.6958C8.976 10.5773 8.8265 10.4598 8.622 10.3433C8.395 10.2158 8.13875 10.1235 7.85325 10.0665C7.56775 10.0095 7.21925 9.981 6.80775 9.981ZM6.80775 8.769C7.12425 8.769 7.39075 8.66075 7.60725 8.44425C7.82425 8.22725 7.93275 7.9605 7.93275 7.644C7.93275 7.3275 7.82425 7.061 7.60725 6.8445C7.39025 6.628 7.12375 6.5195 6.80775 6.519C6.49175 6.5185 6.22525 6.627 6.00825 6.8445C5.79125 7.062 5.68275 7.3285 5.68275 7.644C5.68275 7.9595 5.79125 8.22625 6.00825 8.44425C6.22525 8.66225 6.49175 8.7705 6.80775 8.769ZM3.462 14.25C3.1165 14.25 2.82825 14.1345 2.59725 13.9035C2.36625 13.6725 2.2505 13.384 2.25 13.038V4.962C2.25 4.6165 2.36575 4.32825 2.59725 4.09725C2.82875 3.86625 3.11675 3.7505 3.46125 3.75H14.5387C14.8837 3.75 15.1718 3.86575 15.4028 4.09725C15.6338 4.32875 15.7495 4.617 15.75 4.962V13.0388C15.75 13.3838 15.6343 13.672 15.4028 13.9035C15.1713 14.135 14.8833 14.2505 14.5387 14.25H3.462ZM3.462 13.5H14.5387C14.6538 13.5 14.7595 13.452 14.856 13.356C14.9525 13.26 15.0005 13.154 15 13.038V4.962C15 4.8465 14.952 4.7405 14.856 4.644C14.76 4.5475 14.6543 4.4995 14.5387 4.5H3.46125C3.34625 4.5 3.2405 4.548 3.144 4.644C3.0475 4.74 2.9995 4.846 3 4.962V13.0388C3 13.1538 3.048 13.2595 3.144 13.356C3.24 13.4525 3.34575 13.5005 3.46125 13.5" fill="black"/>
</svg>
