<svg width="216" height="100" viewBox="0 0 216 100" fill="none" xmlns="http://www.w3.org/2000/svg">
<g filter="url(#filter0_d_93_386)">
<rect x="80" y="22" width="56" height="56" rx="28" fill="white"/>
<path d="M106 58C106 58 106.667 59 108 59C109.333 59 110 58 110 58" stroke="black" stroke-width="1.5" stroke-linecap="round" stroke-linejoin="round"/>
<path d="M114 47C114 49 116 50 116 52C116 55 111.556 56 108 56C104.444 56 100 55 100 52C100 50 102 49.2414 102 47C102 44 104 41 108 41C112 41 114 44 114 47Z" stroke="black" stroke-width="1.5" stroke-linecap="round" stroke-linejoin="round"/>
<circle cx="116" cy="41" r="2" fill="#E51E25"/>
</g>
<defs>
<filter id="filter0_d_93_386" x="0" y="-58" width="216" height="216" filterUnits="userSpaceOnUse" color-interpolation-filters="sRGB">
<feFlood flood-opacity="0" result="BackgroundImageFix"/>
<feColorMatrix in="SourceAlpha" type="matrix" values="0 0 0 0 0 0 0 0 0 0 0 0 0 0 0 0 0 0 127 0" result="hardAlpha"/>
<feOffset/>
<feGaussianBlur stdDeviation="40"/>
<feComposite in2="hardAlpha" operator="out"/>
<feColorMatrix type="matrix" values="0 0 0 0 0 0 0 0 0 0 0 0 0 0 0 0 0 0 0.08 0"/>
<feBlend mode="normal" in2="BackgroundImageFix" result="effect1_dropShadow_93_386"/>
<feBlend mode="normal" in="SourceGraphic" in2="effect1_dropShadow_93_386" result="shape"/>
</filter>
</defs>
</svg>
