<svg width="58" height="58" viewBox="0 0 58 58" fill="none" xmlns="http://www.w3.org/2000/svg">
<rect x="0.441176" y="0.441176" width="56.6471" height="56.6471" rx="10.1471" fill="white" fill-opacity="0.2"/>
<rect x="0.441176" y="0.441176" width="56.6471" height="56.6471" rx="10.1471" stroke="white" stroke-width="0.882353"/>
<path d="M28.7646 18.7646C26.9081 18.7646 25.1276 19.5021 23.8148 20.8149C22.5021 22.1277 21.7646 23.9081 21.7646 25.7646V29.2926C21.7647 29.4478 21.7288 29.6008 21.6596 29.7396L19.9426 33.1726C19.8587 33.3404 19.8191 33.5267 19.8275 33.7141C19.836 33.9014 19.8921 34.0835 19.9907 34.243C20.0893 34.4025 20.2271 34.5342 20.3908 34.6255C20.5546 34.7168 20.7391 34.7647 20.9266 34.7646H36.6026C36.7901 34.7647 36.9745 34.7168 37.1383 34.6255C37.3021 34.5342 37.4398 34.4025 37.5384 34.243C37.637 34.0835 37.6932 33.9014 37.7016 33.7141C37.7101 33.5267 37.6705 33.3404 37.5866 33.1726L35.8706 29.7396C35.801 29.6009 35.7647 29.4479 35.7646 29.2926V25.7646C35.7646 23.9081 35.0271 22.1277 33.7143 20.8149C32.4016 19.5021 30.6211 18.7646 28.7646 18.7646ZM28.7646 37.7646C28.1439 37.765 27.5385 37.5728 27.0316 37.2146C26.5247 36.8564 26.1415 36.3498 25.9346 35.7646H31.5946C31.3877 36.3498 31.0044 36.8564 30.4976 37.2146C29.9907 37.5728 29.3852 37.765 28.7646 37.7646Z" fill="white"/>
</svg>
