<svg width="30" height="30" viewBox="0 0 30 30" fill="none" xmlns="http://www.w3.org/2000/svg">
<path d="M3.125 5C3.125 4.66848 3.2567 4.35054 3.49112 4.11612C3.72554 3.8817 4.04348 3.75 4.375 3.75H11.875L15 7.5H25.625C25.9565 7.5 26.2745 7.6317 26.5089 7.86612C26.7433 8.10054 26.875 8.41848 26.875 8.75V25C26.875 25.3315 26.7433 25.6495 26.5089 25.8839C26.2745 26.1183 25.9565 26.25 25.625 26.25H4.375C4.04348 26.25 3.72554 26.1183 3.49112 25.8839C3.2567 25.6495 3.125 25.3315 3.125 25V5Z" stroke="white" stroke-width="1.5" stroke-linejoin="round"/>
<path d="M11.875 13.75L18.125 20M18.125 13.75L11.875 20" stroke="white" stroke-width="1.5" stroke-linecap="round" stroke-linejoin="round"/>
</svg>
