<svg width="30" height="30" viewBox="0 0 30 30" fill="none" xmlns="http://www.w3.org/2000/svg">
<path d="M8.75122 15H13.4387C14.9037 15 16.2787 14.5 17.265 13.6537C17.8321 13.1796 18.267 12.5668 18.5275 11.875H8.74997C8.41845 11.875 8.10051 11.7433 7.86609 11.5089C7.63167 11.2745 7.49997 10.9565 7.49997 10.625C7.49997 10.2935 7.63167 9.97554 7.86609 9.74112C8.10051 9.5067 8.41845 9.375 8.74997 9.375H18.5275C18.267 8.68316 17.8321 8.07041 17.265 7.59625C16.2775 6.75125 14.9037 6.25 13.4387 6.25H8.74997C8.41845 6.25 8.10051 6.1183 7.86609 5.88388C7.63167 5.64946 7.49997 5.33152 7.49997 5C7.49997 4.66848 7.63167 4.35054 7.86609 4.11612C8.10051 3.8817 8.41845 3.75 8.74997 3.75H13.4375L13.6625 3.7525L13.75 3.75H22.5C22.8315 3.75 23.1494 3.8817 23.3839 4.11612C23.6183 4.35054 23.75 4.66848 23.75 5C23.75 5.33152 23.6183 5.64946 23.3839 5.88388C23.1494 6.1183 22.8315 6.25 22.5 6.25H19.4687C20.2956 7.12053 20.8672 8.20157 21.1212 9.375H22.5C22.8315 9.375 23.1494 9.5067 23.3839 9.74112C23.6183 9.97554 23.75 10.2935 23.75 10.625C23.75 10.9565 23.6183 11.2745 23.3839 11.5089C23.1494 11.7433 22.8315 11.875 22.5 11.875H21.1212C20.8262 13.2837 20.04 14.5675 18.8925 15.5512C17.4175 16.815 15.4537 17.5 13.4375 17.5H12.14L19.8125 24.05C20.0556 24.2678 20.2039 24.5722 20.2256 24.8979C20.2473 25.2236 20.1407 25.5449 19.9286 25.7931C19.7165 26.0412 19.4157 26.1966 19.0906 26.2259C18.7655 26.2552 18.4418 26.1562 18.1887 25.95L7.94247 17.2037L7.92997 17.1925C7.70916 17.0019 7.5623 16.7398 7.51501 16.4519C7.46772 16.1641 7.523 15.8687 7.67122 15.6175C7.78166 15.4292 7.93947 15.2732 8.12895 15.1648C8.31842 15.0565 8.53296 14.9997 8.75122 15Z" fill="white"/>
</svg>
